/* XPM */
static char *f31a6b4a8ba84d32944ba4777b28e9d9[] = {
/* columns rows colors chars-per-pixel */
"32 32 91 1 ",
"  c #000116",
". c #040915",
"X c #0A0D15",
"o c #000018",
"O c #100D15",
"+ c #0D1015",
"@ c #131215",
"# c #181615",
"$ c #141914",
"% c #1C1C15",
"& c #211F15",
"* c #252215",
"= c #2A2415",
"- c #2D2B14",
"; c #302714",
": c #332C14",
"> c #3B2E14",
", c #3D3314",
"< c #413714",
"1 c #463914",
"2 c #4C3D14",
"3 c #4A4114",
"4 c #554513",
"5 c #5D4614",
"6 c #574813",
"7 c #5B4B13",
"8 c #614F13",
"9 c #645113",
"0 c #6B5512",
"q c #6F5913",
"w c #715913",
"e c #746013",
"r c #7C6612",
"t c #7A7312",
"y c #826512",
"u c #856912",
"i c #896C12",
"p c #906C12",
"a c #8D7112",
"s c #877D12",
"d c #947412",
"f c #9C7C12",
"g c #A27E12",
"h c #9D8112",
"j c #A58312",
"k c #AB8412",
"l c #A68B12",
"z c #AD8A11",
"x c #B38B11",
"c c #B98D12",
"v c #A59611",
"b c #B19311",
"n c #BB9211",
"m c #BD9C11",
"M c #C39711",
"N c #C39911",
"B c #CD9E11",
"V c #DCAC0E",
"C c #C6A111",
"Z c #C9A411",
"A c #CAAC10",
"S c #D3A411",
"D c #D7AD10",
"F c #DCAB11",
"G c #DEB410",
"H c #EBB60E",
"J c #EEBA0F",
"K c #F1BB0F",
"L c #E3AF10",
"P c #E4B310",
"I c #EBB610",
"U c #E5B910",
"Y c #ECBB10",
"T c #F3BD10",
"R c #DDC310",
"E c #E1CB0F",
"W c #FAC60D",
"Q c #FECA0F",
"! c #EFD30F",
"~ c #F2D40F",
"^ c #FFD50F",
"/ c #FFDB0F",
"( c #E0C810",
") c #F7C210",
"_ c #F9C410",
"` c #FFCD10",
"' c #FFE30F",
"] c #FFEB0F",
"[ c #FFF60E",
"{ c #FFFD0E",
"} c None",
/* pixels */
"}}}}}}}}}}}}}SxjjcS}}}}}}}}}}}}}",
"}}}}}}}}}}z6*.    .*6z}}}}}}}}}}",
"}}}}}}}}h=   .XXXX.   =h}}}}}}}}",
"}}}}}}U1  X+O++++++O+X  1U}}}}}}",
"}}}}}ZO X+++++++++++O++X OZ}}}}}",
"}}}}Z  @++++++O+X++++++++ oZ}}}}",
"}}}YO +++++OX.     o.+O+++ OY}}}",
"}}}, ++++    .%2ear3. .++++ ,}}}",
"}}g X++XX:7dB)/'^`^]`w  @+OX g}}",
"}}& @+X  n{`Ff6*.  =m{m .++@ %}}",
"}k X+X $ w`.o.=7jNz, 3{m .++X k}",
"}6 +X i~dyJM)/'^INI{A 2{qo++@ 6}",
"}& + :/yQ'TPf2#. . ,[Z N`..+O %}",
"B..O.#SRS,I0 :wzI/Z >{>&]2 ++..B",
"x X++.#t*oJg9{/Jcp^S Pn `u ++X z",
"g X+O+.   nT#:.   y] cF Qf +OX g",
"j XO++O + 7^  +,wj]n Yz ^y O+X g",
"x X+++ w!dqJBK/'/`ho4{=:], ++X z",
"B..++ %/aT')Jx8=.  9{zoD_..++..B",
"}# X+.OSRL3Vro&7fS^{l 0{7 O++ %}",
"}4 @++.#s, Fc6[/Tnr# w{j X+++ 4}",
"}k X+++.   f_X$.  @4U{h .+++X j}",
"}}% ++O :v>2W75jP^''G4 .++O+ %}}",
"}}g XO.%IAP_^'^JMa7-  X++++X g}}",
"}}}, + =`hQb5,%.    X++++++ >}}}",
"}}}UX + 9Ea    .X+O+++X+++ XU}}}",
"}}}}C  +   X+++++++++++++  C}}}}",
"}}}}}CO XXX+++++++++X+++ OC}}}}}",
"}}}}}}U<  +++O+++++++O  <U}}}}}}",
"}}}}}}}}f*   .XXXX.   *f}}}}}}}}",
"}}}}}}}}}}j6*.    .%6j}}}}}}}}}}",
"}}}}}}}}}}}}}BxggxB}}}}}}}}}}}}}"
};
