/* XPM */
static char *_90b065ab39a4338b4f8a6a81d288b81[] = {
/* columns rows colors chars-per-pixel */
"16 16 139 2 ",
"   c #000215",
".  c #000615",
"X  c #000715",
"o  c #010715",
"O  c #020715",
"+  c #030815",
"@  c #030915",
"#  c #040915",
"$  c #040A15",
"%  c #050A15",
"&  c #060A15",
"*  c #060B15",
"=  c #070B15",
"-  c #070C15",
";  c #080C15",
":  c #090C15",
">  c #080D15",
",  c #090D15",
"<  c #0A0D15",
"1  c #0A0E15",
"2  c #0B0E15",
"3  c #0B0F15",
"4  c #0C0F14",
"5  c #0D1014",
"6  c #0E1114",
"7  c #0F1114",
"8  c #101214",
"9  c #111314",
"0  c #141514",
"q  c #151514",
"w  c #141515",
"e  c #141615",
"r  c #151615",
"t  c #161715",
"y  c #171814",
"u  c #171815",
"i  c #191914",
"p  c #181815",
"a  c #181916",
"s  c #191916",
"d  c #1C1B14",
"f  c #1D1D15",
"g  c #1E1D14",
"h  c #1E1D15",
"j  c #1F1E15",
"k  c #1D1C16",
"l  c #1D1D16",
"z  c #201E14",
"x  c #222014",
"c  c #272414",
"v  c #2C2614",
"b  c #2F2A14",
"n  c #322B14",
"m  c #332D14",
"M  c #342D14",
"N  c #352E14",
"B  c #362F14",
"V  c #372F14",
"C  c #383014",
"Z  c #393114",
"A  c #3A3214",
"S  c #413713",
"D  c #453A13",
"F  c #463A13",
"G  c #473B13",
"H  c #4A3D13",
"J  c #4A3E13",
"K  c #4B3E13",
"L  c #4C3F13",
"P  c #4F4113",
"I  c #514313",
"U  c #544513",
"Y  c #554513",
"T  c #564613",
"R  c #564713",
"E  c #584813",
"W  c #5A4913",
"Q  c #5B4A13",
"!  c #5B4B13",
"~  c #5C4B13",
"^  c #5E4C13",
"/  c #5E4D13",
"(  c #6A5512",
")  c #6A5612",
"_  c #6B5612",
"`  c #6B5613",
"'  c #6C5812",
"]  c #705A12",
"[  c #725B12",
"{  c #735C12",
"}  c #725D12",
"|  c #745E12",
" . c #775F12",
".. c #776012",
"X. c #7B6212",
"o. c #7C6212",
"O. c #7C6312",
"+. c #7B6412",
"@. c #7D6412",
"#. c #7F6512",
"$. c #806612",
"%. c #816612",
"&. c #816712",
"*. c #826712",
"=. c #836812",
"-. c #856912",
";. c #876A12",
":. c #896C12",
">. c #896D12",
",. c #8A6D12",
"<. c #8B6E12",
"1. c #8C6F12",
"2. c #8E7011",
"3. c #8E7012",
"4. c #8F7112",
"5. c #927311",
"6. c #907112",
"7. c #917212",
"8. c #927312",
"9. c #937312",
"0. c #967611",
"q. c #967612",
"w. c #987811",
"e. c #997811",
"r. c #9D7B11",
"t. c #9E7C11",
"y. c #A27F11",
"u. c #A28011",
"i. c #AC8711",
"p. c #AD8711",
"a. c #AE8811",
"s. c #AF8911",
"d. c #B38B10",
"f. c #C19610",
"g. c #C39811",
"h. c #C49810",
"j. c #C59910",
"k. c #D5A510",
"l. c None",
/* pixels */
"l.l.l.l.l.l.W K K W l.l.l.l.l.l.",
"l.l.l.l.N u , % , , w Z l.l.l.l.",
"l.l.' h % , , % O O , % h | l.l.",
"l.l.h , 4 : z N P G w % , z l.l.",
"l.N %   N r.8.q.8.8.y.S @ % Z l.",
"l.w 9 I 1.f.$.-.-.1.[ i.b @ p l.",
"T @ x g.j.d.$.2.8. .q.#.$.O 4 ~ ",
"D % 6 c i 2.^ ` ` y.X.<.<.6 % L ",
"D % , c W s.O.` -.O.2.$.1.% - K ",
"T , O | k.h.t.-.-.8.X.q./ O 4 W ",
"| w , i z T $.[ <.#.w.<., , w #.",
"l.m @ w #.i.f.8.8.<.W : 6 % Z l.",
"l.l.p w s.<.Z v e % O 6 % h l.l.",
"l.l.` p , % @ - 4 6 6 % h ' l.l.",
"l.l.l.l.n w , % % : e m l.l.l.l.",
"l.l.l.l.l.| T G G T X.l.l.l.l.l."
};
