/* XPM */
static char *d75f9755a74d4ac3ea0f126b62a5c6fe[] = {
/* columns rows colors chars-per-pixel */
"64 64 108 2 ",
"   c #000116",
".  c #050A15",
"X  c #0A0E15",
"o  c #000018",
"O  c #100F15",
"+  c #0D1015",
"@  c #131515",
"#  c #1B1515",
"$  c #161915",
"%  c #1C1B15",
"&  c #211D15",
"*  c #291F15",
"=  c #242214",
"-  c #2B2414",
";  c #272914",
":  c #2D2914",
">  c #312715",
",  c #332C14",
"<  c #3A2E14",
"1  c #363014",
"2  c #3B3414",
"3  c #433714",
"4  c #433914",
"5  c #4B3D14",
"6  c #4D4114",
"7  c #554514",
"8  c #5A4713",
"9  c #564913",
"0  c #5C4B13",
"q  c #614D13",
"w  c #645213",
"e  c #6B5613",
"r  c #6D5A13",
"t  c #735C13",
"y  c #785F13",
"u  c #6B6313",
"i  c #766213",
"p  c #7C6412",
"a  c #7E6912",
"s  c #826612",
"d  c #846A12",
"f  c #8A6D12",
"g  c #837412",
"h  c #8B7212",
"j  c #947512",
"k  c #987612",
"l  c #957A12",
"z  c #9C7B12",
"x  c #A27E12",
"c  c #9C8312",
"v  c #AE870F",
"b  c #B28A0E",
"n  c #BE930D",
"m  c #A38312",
"M  c #A98512",
"N  c #A38912",
"B  c #AD8911",
"V  c #B18712",
"C  c #B28B11",
"Z  c #B98F12",
"A  c #AF9011",
"S  c #B49111",
"D  c #BB9311",
"F  c #BC9B11",
"G  c #C5970E",
"H  c #C59B0F",
"J  c #C29611",
"K  c #C49B11",
"L  c #CA9C11",
"P  c #D09F11",
"I  c #D5A60E",
"U  c #D8A50F",
"Y  c #DCA90D",
"T  c #C4A110",
"R  c #CCA111",
"E  c #CDA810",
"W  c #D3A411",
"Q  c #D9A611",
"!  c #D4AA11",
"~  c #DDAC11",
"^  c #DEB310",
"/  c #E6B10D",
"(  c #ECB60C",
")  c #EFB90D",
"_  c #F4BD0F",
"`  c #E2AE11",
"'  c #E4B310",
"]  c #EBB510",
"[  c #E4B810",
"{  c #ECB910",
"}  c #F3BB10",
"|  c #F9BE10",
" . c #F7C00F",
".. c #FECD0F",
"X. c #FFD40F",
"o. c #FFDC0F",
"O. c #EDC310",
"+. c #F3C410",
"@. c #FCC410",
"#. c #F5C910",
"$. c #FFCC10",
"%. c #FFD210",
"&. c #FFDD10",
"*. c #FFE30F",
"=. c #FFEB0F",
"-. c #FFF20E",
";. c #FFFA0E",
":. c None",
/* pixels */
":.:.:.:.:.:.:.:.:.:.:.:.:.:.:.:.:.:.:.:.:.:.:.:.:.:.:.:.:.:.o.X.X.o.:.:.:.:.:.:.:.:.:.:.:.:.:.:.:.:.:.:.:.:.:.:.:.:.:.:.:.:.:.:.",
":.:.:.:.:.:.:.:.:.:.:.:.:.:.:.:.:.:.:.:.:.:.:.:.%.{ L m f y w 0 0 w y f m L { %.:.:.:.:.:.:.:.:.:.:.:.:.:.:.:.:.:.:.:.:.:.:.:.:.",
":.:.:.:.:.:.:.:.:.:.:.:.:.:.:.:.:.:.:.:.:.%.T f 6 %                         % 6 g L %.:.:.:.:.:.:.:.:.:.:.:.:.:.:.:.:.:.:.:.:.:.",
":.:.:.:.:.:.:.:.:.:.:.:.:.:.:.:.:.:.*.{ h 2 .       . X + + X + X O + + X .         2 h { *.:.:.:.:.:.:.:.:.:.:.:.:.:.:.:.:.:.:.",
":.:.:.:.:.:.:.:.:.:.:.:.:.:.:.:.:.[ p @     . + + + + + + + + + + + + + + + + + + .     O i [ *.:.:.:.:.:.:.:.:.:.:.:.:.:.:.:.:.",
":.:.:.:.:.:.:.:.:.:.:.:.:.:.:.%.h +     O + + + + + + + + + + + + + + + + + + + + + O +     + h %.:.:.:.:.:.:.:.:.:.:.:.:.:.:.:.",
":.:.:.:.:.:.:.:.:.:.:.:.:.*.T >     + + + + + + + + + + + X + + + + + + + + + + + + + + O +     : T *.:.:.:.:.:.:.:.:.:.:.:.:.:.",
":.:.:.:.:.:.:.:.:.:.:.:.*.h     + O + + + + + + + + + + + + + + + + + + + + + + + + + + + O + +     h o.:.:.:.:.:.:.:.:.:.:.:.:.",
":.:.:.:.:.:.:.:.:.:.:.%.0     + + + + + + + + + + + + + + + + + + + + + + + + + + + X + + + + + +     8 %.:.:.:.:.:.:.:.:.:.:.:.",
":.:.:.:.:.:.:.:.:.:...<   X + + + + + X + + + + + + + + + + + + + + + + + + + + + + + + + + + + + + X   < ..:.:.:.:.:.:.:.:.:.:.",
":.:.:.:.:.:.:.:.:...>   + + + + + + + + + + + + + + + + + X + + + X + + + + + + + + + + + + + + + + + +   : ..:.:.:.:.:.:.:.:.:.",
":.:.:.:.:.:.:.:.X.<   + + + + + + + + + + + + + + + + + + + + + + + + + + + + + + + + + + + + + + + + + X   , %.:.:.:.:.:.:.:.:.",
":.:.:.:.:.:.:.*.7   + + + + + + + + + + + + + + + + + + + + + + + + O + + + + + + + + + + + + + + + + + + +   7 o.:.:.:.:.:.:.:.",
":.:.:.:.:.:.*.f   X + + + + + + + + + + + + + + X + + + + + + + X .   . . X X + + + + + + + + + + + + + + + X   f *.:.:.:.:.:.:.",
":.:.:.:.:.:.W     @ + + + + + + + + + + + + O O + + X X             + X .         + + + + + + + + + + + + + + .   R :.:.:.:.:.:.",
":.:.:.:.:.%.=   + + + + + + + + + + + + + X             $ 1 0 d B T ~ ~ E D j 9 @     + + + + + + + + + + O X +   = %.:.:.:.:.:.",
":.:.:.:.:.f   X + + + + + + + + + +         O ; 6 t z L ' $.o.o.o.&.o.o.o.o.o.o.[ l =     O + + + + + + + + + + +   d *.:.:.:.:.",
":.:.:.:.{ X   + + + + + + + + + + . : r h D ~ @.%.o.&.o.o.o.o.o.%._ ` ` ] $.o.o.%.o.%.d     O + + + + + + + + + O   . { :.:.:.:.",
":.:.:.*.y   @ + + + + + + + + + +   d ;.o.o.o.o.o.&.o.@.~ D k r 4 = O @ % 1 e C $.o.%.*.E %   X + + + + X + + + + +   t *.:.:.:.",
":.:.:.{ X   + + + + + + + + + + +   5 %.| _ ] H m p 9 , +                       : m X.%.&.+.-   + + + + + + + + + +   + ] :.:.:.",
":.:.:.f   + + + + + + + + X .   X   & | o.~ @                 O > 0 t i w 2 .       5 +.X.X.+.%   + + + + + + + + + +   f :.:.:.",
":.:...1   + + + + + + O .   X +     . L X.I     o . = 5 t z D ~ @.o.o.o.o...! a X     & [ X.o.!   . + + + + + + + + +   , ..:.:.",
":.:.L   . + + + + + O .   d ^ [ N O o f ( I p s C I _ %.o.&.o.o.o.o.o.o.o.X.X.*.[ 3     % +.%.&.f   X + + + + + + + + .   L :.:.",
":.:.d   + + + + + O X   j -.=.=.=.I z I  . .X.o.o.o.o.o.o.X.$.` J z y r h L X.X.X.o.q     3 o.%.%.&   + + + + + + + + +   s :.:.",
":.%.4 o + + + + + +   - %.X.f w { %.&.%.| @.@.&.%.{ R B d 9 , $             3 ! o.%.o.4     x &.&.z   X + + + + + + + +   4 %.:.",
":.) $   + + + + + +   7 *...    I X.%.@.) ) L w 3 % .               + $         A &.X.{ X   = @.X.) @   + + + + + + + +   @ ] :.",
":.K   . + + + + + +   % @.o.V k @.o.r & n ( v           . = 4 e h D ~ [ T q       W o.&.d     V o.o.0   + + + + + + + + .   J :.",
":.x   X + O X + + + +   e *.;.;.-.V     K &.@.-   > g M R _ %.o.o.o.o.o.o.*.k     2 %.%.` .   e o.o.k   + + + + + X + + +   z :.",
":.d   + X + + + + + + X   7 A F i   .   M o.X.2   %.=.o.o.X.o.o.X.$./ ` %.$.*.q     G o.%.2   1 $.o.D   . + + + + + + + +   s :.",
":.r   + + + + + + + + + X         . +   p o.o.w . @.=.%. .! C f q 2 $ . d ..o.R     d &.o.e   % { o.Q . . + + + + + X + +   e o.",
"%.0   + + + + + + + + + + + X X + + +   6 %.o.x o > u 6 = .               ! o._ $   w X.&.s   X ~ o.` + . X + + + + + + +   0 X.",
"%.0   X + + + + + + + + + + + + + + +   : @.o.K           . X + X .       ` o.{ @   e o.&.p   X ~ o.` +   + + + + + + + +   7 X.",
"%.0   X + + + + + + + + + + + X . . O   X ` o.( @   + .           . % < S %.&.D     h &.o.w   % ) o.W   . X + + + + + + +   9 %.",
"%.0   + + + + + + + + + + O X     .       D o.| % o     @ , 9 p M T { %.%.%.o.2     Q X.$.> o 3 %.o.D   X + + + + + + + + o 0 X.",
"o.e   + + X + + + + + + + X   8 T ! c $ o w ) ~ p q l J ' $.X.&.&.o.o.&.*.%.q     8 o.o.P     y *.&.f   + + + + + O + + X   e o.",
":.d   + + + + + + + + + +   w *.-.;.=.Q s J _ } %.o.&.o.X.o.&.o.%. .I S h -     # +.%.*.w     G o.X.4 o + + + + + X + + +   s :.",
":.x o X + + + + + + + +   + { *.V p ] %.o.%. . .@.*.o.$.[ J z y 6 - .         - ^ X.&.P     2 X.%.` . . X O + + + + + + +   z :.",
":.G   . + + + + + + + +   : ..*.%   M o.%.%.| _ I p 9 1 $                 & p +.X.o.#.%     K o.*.p   + + + X + + + + + X   D :.",
":.{ @   + + + X + + + + . X { &.V s ] *.z < b / G       o     X : 7 p z K _ o.%.&.O.-     t o.%.) X . O + + + + + + + +   + ] :.",
":.%.4   + + + + + + + + +   q &.-.-.-.~     x o.%.5   % e j D ~ @.X.&.&.o.X.*.X.C #     5 X.$.*.q   X X + + + + + + + +   3 %.:.",
":.:.s   + + + + + + + X O X   9 K E c $     f &.o.w   I =.&.o.o.o.&.o.X.@.^ m 4       7 ..%.*.M   X + + + + + + + + + +   p :.:.",
":.:.L   . + + + + + + + + + +     .     +   0 o.o.d   { -.o.$.] L c p 9 : +         d X.%.*.T     O + + + + + + + + + .   L :.:.",
":.:...,   + + + + + + + + + + + . . X + X   2 $.o.D   : g w 2 $               O w ! &.%.*.T .   + + + + + + + + + + +   : ..:.:.",
":.:.:.f   + + + + + + + + + + + + +     .   $ ) o.' X   o           . = 5 r m [ o.%.X.&.z     @ + + + + + + + + + + +   f :.:.:.",
":.:.:.{ X . X O + X + + + + + +     % ;       D ../ X     % 2 w h C W  .%.o.&.%.o.o.! 6   . + + + + + + + + + + + + . . ] :.:.:.",
":.:.:.*.r   O X + + + + + + + . . l +.$.T :   p ) Y k z L { %.o.o.&.X.o.o.*.o. .D 0     X X + + + + + + + + + + X O   e *.:.:.:.",
":.:.:.:.{ . . X + + + + + + X   z -.&.&.=.( Z ` +. .X.o.o.o.o.&.o.%.{ W M p 0 =     . + + + + X + + + + + + + + O   . ' :.:.:.:.",
":.:.:.:.:.s   + + + + + + +   - %.X.y 3 ` %.o.%.X.o.o.%.| ~ S h w 3 % .         X X X + + + + + + + + + + + + + +   s *.:.:.:.:.",
":.:.:.:.:...=   + + + + + +   3 o.%.+   K o.$.' G z p 5 : X           . X + + + + + + + + + + + + + + + + + + +   & %.:.:.:.:.:.",
":.:.:.:.:.:.L   . + + + + +   + _ *.W S $.&.e .   o         X + + + + + + + + + + + + + + + + + + + + + + + + .   L :.:.:.:.:.:.",
":.:.:.:.:.:.*.d   X O + + + +   5 X.;.;.=.x     . X + + + + + + + + + + + + + X + + + + + + + + + + + + + + X   s &.:.:.:.:.:.:.",
":.:.:.:.:.:.:.o.6   + + + + + +   , l N q   . + + + + + + + + + + + + + + + + + + + + + + + + + + + + + + +   5 o.:.:.:.:.:.:.:.",
":.:.:.:.:.:.:.:.%.,   + + + + + +         . + + + + + + + + + + + + + + + + + + + + X + + + + + + + + + +   > %.:.:.:.:.:.:.:.:.",
":.:.:.:.:.:.:.:.:.+.-   + + + + + + + X + + + + + + + + + + + + + + + + + + + + + + + + + + + + + + + +   - #.:.:.:.:.:.:.:.:.:.",
":.:.:.:.:.:.:.:.:.:.#.,   X @ + + + + + + + + + + + + + + + X + + + + + + + + + + + + + + + + + + + X   > +.:.:.:.:.:.:.:.:.:.:.",
":.:.:.:.:.:.:.:.:.:.:...7   . + + + + + + + + + + + + + + + + + + + + + + + + + + + + + + + + + + .   6 %.:.:.:.:.:.:.:.:.:.:.:.",
":.:.:.:.:.:.:.:.:.:.:.:.&.d     + + + + + + + + + + + + + + + + X + + + + + X + + + + + + + + +     d o.:.:.:.:.:.:.:.:.:.:.:.:.",
":.:.:.:.:.:.:.:.:.:.:.:.:.*.K -     + + + + + + + + + + + + + + + + + + + + + + + + + + + +     = F *.:.:.:.:.:.:.:.:.:.:.:.:.:.",
":.:.:.:.:.:.:.:.:.:.:.:.:.:.:.%.a X     + + + + + + + + + + + + + + + + + + + + + + + +     X a %.:.:.:.:.:.:.:.:.:.:.:.:.:.:.:.",
":.:.:.:.:.:.:.:.:.:.:.:.:.:.:.:.*.' r +     X + + + + X + + + + + + + + + + + + + X     + r ^ &.:.:.:.:.:.:.:.:.:.:.:.:.:.:.:.:.",
":.:.:.:.:.:.:.:.:.:.:.:.:.:.:.:.:.:.*.' f 1         X X + + + X + X + + X X         1 d ' &.:.:.:.:.:.:.:.:.:.:.:.:.:.:.:.:.:.:.",
":.:.:.:.:.:.:.:.:.:.:.:.:.:.:.:.:.:.:.:.:...J d 4 $                         $ 4 a J ..:.:.:.:.:.:.:.:.:.:.:.:.:.:.:.:.:.:.:.:.:.",
":.:.:.:.:.:.:.:.:.:.:.:.:.:.:.:.:.:.:.:.:.:.:.:.%.[ J z s e 0 9 8 0 e s z J ' ..:.:.:.:.:.:.:.:.:.:.:.:.:.:.:.:.:.:.:.:.:.:.:.:.",
":.:.:.:.:.:.:.:.:.:.:.:.:.:.:.:.:.:.:.:.:.:.:.:.:.:.:.:.:.o.X.%.X.X.o.:.:.:.:.:.:.:.:.:.:.:.:.:.:.:.:.:.:.:.:.:.:.:.:.:.:.:.:.:."
};
